%TF.GenerationSoftware,KiCad,Pcbnew,(6.0.5)*%
%TF.CreationDate,2022-07-22T19:51:40-04:00*%
%TF.ProjectId,Kyamaries-HPS-Clock,4b79616d-6172-4696-9573-2d4850532d43,rev?*%
%TF.SameCoordinates,PX4cdb1d4PY8a63396*%
%TF.FileFunction,Legend,Bot*%
%TF.FilePolarity,Positive*%
%FSLAX46Y46*%
G04 Gerber Fmt 4.6, Leading zero omitted, Abs format (unit mm)*
G04 Created by KiCad (PCBNEW (6.0.5)) date 2022-07-22 19:51:40*
%MOMM*%
%LPD*%
G01*
G04 APERTURE LIST*
G04 Aperture macros list*
%AMRoundRect*
0 Rectangle with rounded corners*
0 $1 Rounding radius*
0 $2 $3 $4 $5 $6 $7 $8 $9 X,Y pos of 4 corners*
0 Add a 4 corners polygon primitive as box body*
4,1,4,$2,$3,$4,$5,$6,$7,$8,$9,$2,$3,0*
0 Add four circle primitives for the rounded corners*
1,1,$1+$1,$2,$3*
1,1,$1+$1,$4,$5*
1,1,$1+$1,$6,$7*
1,1,$1+$1,$8,$9*
0 Add four rect primitives between the rounded corners*
20,1,$1+$1,$2,$3,$4,$5,0*
20,1,$1+$1,$4,$5,$6,$7,0*
20,1,$1+$1,$6,$7,$8,$9,0*
20,1,$1+$1,$8,$9,$2,$3,0*%
G04 Aperture macros list end*
%ADD10C,0.150000*%
%ADD11C,0.120000*%
%ADD12C,3.200000*%
%ADD13C,1.440000*%
%ADD14C,2.000000*%
%ADD15C,3.000000*%
%ADD16R,1.800000X2.600000*%
%ADD17O,1.800000X2.600000*%
%ADD18R,1.700000X1.700000*%
%ADD19O,1.700000X1.700000*%
%ADD20RoundRect,0.500000X0.500000X-1.500000X0.500000X1.500000X-0.500000X1.500000X-0.500000X-1.500000X0*%
%ADD21RoundRect,0.500000X-1.750000X-0.500000X1.750000X-0.500000X1.750000X0.500000X-1.750000X0.500000X0*%
%ADD22R,1.600000X1.600000*%
%ADD23O,1.600000X1.600000*%
%ADD24R,3.000000X3.000000*%
G04 APERTURE END LIST*
D10*
%TO.C,J2*%
X21093247Y50615677D02*
X20378961Y50615677D01*
X20236104Y50568058D01*
X20140866Y50472820D01*
X20093247Y50329963D01*
X20093247Y50234725D01*
X20998008Y51044249D02*
X21045628Y51091868D01*
X21093247Y51187106D01*
X21093247Y51425201D01*
X21045628Y51520439D01*
X20998008Y51568058D01*
X20902770Y51615677D01*
X20807532Y51615677D01*
X20664675Y51568058D01*
X20093247Y50996630D01*
X20093247Y51615677D01*
%TO.C,TP1*%
X50212636Y20655530D02*
X49641208Y20655530D01*
X49926922Y19655530D02*
X49926922Y20655530D01*
X49307874Y19655530D02*
X49307874Y20655530D01*
X48926922Y20655530D01*
X48831684Y20607910D01*
X48784065Y20560291D01*
X48736446Y20465053D01*
X48736446Y20322196D01*
X48784065Y20226958D01*
X48831684Y20179339D01*
X48926922Y20131720D01*
X49307874Y20131720D01*
X47784065Y19655530D02*
X48355493Y19655530D01*
X48069779Y19655530D02*
X48069779Y20655530D01*
X48165017Y20512672D01*
X48260255Y20417434D01*
X48355493Y20369815D01*
%TO.C,TP3*%
X55769403Y73239012D02*
X55197975Y73239012D01*
X55483689Y72239012D02*
X55483689Y73239012D01*
X54864641Y72239012D02*
X54864641Y73239012D01*
X54483689Y73239012D01*
X54388451Y73191392D01*
X54340832Y73143773D01*
X54293213Y73048535D01*
X54293213Y72905678D01*
X54340832Y72810440D01*
X54388451Y72762821D01*
X54483689Y72715202D01*
X54864641Y72715202D01*
X53959879Y73239012D02*
X53340832Y73239012D01*
X53674165Y72858059D01*
X53531308Y72858059D01*
X53436070Y72810440D01*
X53388451Y72762821D01*
X53340832Y72667583D01*
X53340832Y72429488D01*
X53388451Y72334250D01*
X53436070Y72286631D01*
X53531308Y72239012D01*
X53817022Y72239012D01*
X53912260Y72286631D01*
X53959879Y72334250D01*
%TO.C,TP4*%
X59147235Y73170237D02*
X58575807Y73170237D01*
X58861521Y72170237D02*
X58861521Y73170237D01*
X58242473Y72170237D02*
X58242473Y73170237D01*
X57861521Y73170237D01*
X57766283Y73122617D01*
X57718664Y73074998D01*
X57671045Y72979760D01*
X57671045Y72836903D01*
X57718664Y72741665D01*
X57766283Y72694046D01*
X57861521Y72646427D01*
X58242473Y72646427D01*
X56813902Y72836903D02*
X56813902Y72170237D01*
X57051997Y73217856D02*
X57290092Y72503570D01*
X56671045Y72503570D01*
%TO.C,TP6*%
X70172281Y72628283D02*
X69600853Y72628283D01*
X69886567Y71628283D02*
X69886567Y72628283D01*
X69267519Y71628283D02*
X69267519Y72628283D01*
X68886567Y72628283D01*
X68791329Y72580663D01*
X68743710Y72533044D01*
X68696091Y72437806D01*
X68696091Y72294949D01*
X68743710Y72199711D01*
X68791329Y72152092D01*
X68886567Y72104473D01*
X69267519Y72104473D01*
X67838948Y72628283D02*
X68029424Y72628283D01*
X68124662Y72580663D01*
X68172281Y72533044D01*
X68267519Y72390187D01*
X68315138Y72199711D01*
X68315138Y71818759D01*
X68267519Y71723521D01*
X68219900Y71675902D01*
X68124662Y71628283D01*
X67934186Y71628283D01*
X67838948Y71675902D01*
X67791329Y71723521D01*
X67743710Y71818759D01*
X67743710Y72056854D01*
X67791329Y72152092D01*
X67838948Y72199711D01*
X67934186Y72247330D01*
X68124662Y72247330D01*
X68219900Y72199711D01*
X68267519Y72152092D01*
X68315138Y72056854D01*
%TO.C,TP5*%
X62997526Y73376561D02*
X62426098Y73376561D01*
X62711812Y72376561D02*
X62711812Y73376561D01*
X62092764Y72376561D02*
X62092764Y73376561D01*
X61711812Y73376561D01*
X61616574Y73328941D01*
X61568955Y73281322D01*
X61521336Y73186084D01*
X61521336Y73043227D01*
X61568955Y72947989D01*
X61616574Y72900370D01*
X61711812Y72852751D01*
X62092764Y72852751D01*
X60616574Y73376561D02*
X61092764Y73376561D01*
X61140383Y72900370D01*
X61092764Y72947989D01*
X60997526Y72995608D01*
X60759431Y72995608D01*
X60664193Y72947989D01*
X60616574Y72900370D01*
X60568955Y72805132D01*
X60568955Y72567037D01*
X60616574Y72471799D01*
X60664193Y72424180D01*
X60759431Y72376561D01*
X60997526Y72376561D01*
X61092764Y72424180D01*
X61140383Y72471799D01*
%TO.C,BT1*%
X6392760Y21301355D02*
X6249903Y21253736D01*
X6202284Y21206117D01*
X6154665Y21110879D01*
X6154665Y20968022D01*
X6202284Y20872784D01*
X6249903Y20825165D01*
X6345141Y20777546D01*
X6726093Y20777546D01*
X6726093Y21777546D01*
X6392760Y21777546D01*
X6297522Y21729926D01*
X6249903Y21682307D01*
X6202284Y21587069D01*
X6202284Y21491831D01*
X6249903Y21396593D01*
X6297522Y21348974D01*
X6392760Y21301355D01*
X6726093Y21301355D01*
X5868950Y21777546D02*
X5297522Y21777546D01*
X5583236Y20777546D02*
X5583236Y21777546D01*
X4440379Y20777546D02*
X5011807Y20777546D01*
X4726093Y20777546D02*
X4726093Y21777546D01*
X4821331Y21634688D01*
X4916569Y21539450D01*
X5011807Y21491831D01*
X10178474Y25622784D02*
X9035617Y25622784D01*
X9607046Y25051355D02*
X9607046Y26194212D01*
D11*
%TO.C,J2*%
X12345628Y50949010D02*
G75*
G03*
X13282886Y48686268I3199997J-2D01*
G01*
X17845628Y48749010D02*
G75*
G03*
X14161923Y53815255I-2300000J2200000D01*
G01*
X9045628Y46449010D02*
X13295628Y46449010D01*
X19745628Y46449010D02*
X17795628Y46449010D01*
X19745628Y46449010D02*
X19745628Y55449010D01*
X19745628Y55449010D02*
X13795628Y55449010D01*
X9045628Y46449010D02*
X9045628Y55449010D01*
X9045628Y55449010D02*
X11795628Y55449010D01*
%TO.C,TP1*%
X50150732Y18109910D02*
G75*
G03*
X50150732Y18109910I-1200000J0D01*
G01*
%TO.C,TP3*%
X55707499Y70693392D02*
G75*
G03*
X55707499Y70693392I-1200000J0D01*
G01*
%TO.C,TP4*%
X59085331Y70624617D02*
G75*
G03*
X59085331Y70624617I-1200000J0D01*
G01*
%TO.C,TP6*%
X70110377Y70082663D02*
G75*
G03*
X70110377Y70082663I-1200000J0D01*
G01*
%TO.C,TP5*%
X62935622Y70830941D02*
G75*
G03*
X62935622Y70830941I-1200000J0D01*
G01*
%TO.C,BT1*%
X4807046Y23229926D02*
X4807046Y28229926D01*
X7807046Y22679926D02*
X5357046Y22679926D01*
X5357046Y28779926D02*
X7807046Y28779926D01*
X32120489Y25213935D02*
G75*
G03*
X8507046Y29249926I-12063443J515991D01*
G01*
X8511815Y22186441D02*
G75*
G03*
X7807046Y22679926I-704769J-256515D01*
G01*
X8507046Y22209926D02*
G75*
G03*
X32120489Y26245917I11550000J3520000D01*
G01*
X7807046Y28779926D02*
G75*
G03*
X8511815Y29273411I0J750000D01*
G01*
X4807046Y23229926D02*
G75*
G03*
X5357046Y22679926I549999J-1D01*
G01*
X5357046Y28779926D02*
G75*
G03*
X4807046Y28229926I-1J-549999D01*
G01*
%TD*%
%LPC*%
D12*
%TO.C,H4*%
X134410732Y5109910D03*
%TD*%
D13*
%TO.C,RV1*%
X21010732Y76529910D03*
X23550732Y79069910D03*
X21010732Y81609910D03*
%TD*%
D14*
%TO.C,TP2*%
X113578740Y83329643D03*
%TD*%
D15*
%TO.C,DS1*%
X34311632Y76529910D03*
X109310212Y45529210D03*
X34311632Y45529210D03*
X109310732Y76529910D03*
D16*
X39810732Y76529910D03*
D17*
X42350732Y76529910D03*
X44890732Y76529910D03*
X47430732Y76529910D03*
X49970732Y76529910D03*
X52510732Y76529910D03*
X55050732Y76529910D03*
X57590732Y76529910D03*
X60130732Y76529910D03*
X62670732Y76529910D03*
X65210732Y76529910D03*
X67750732Y76529910D03*
X70290732Y76529910D03*
X72830732Y76529910D03*
X75370732Y76529910D03*
X77910732Y76529910D03*
%TD*%
D18*
%TO.C,J1*%
X120070732Y11759910D03*
D19*
X120070732Y14299910D03*
X120070732Y16839910D03*
X120070732Y19379910D03*
X120070732Y21919910D03*
X120070732Y24459910D03*
%TD*%
D18*
%TO.C,J3*%
X71810732Y35889910D03*
D19*
X74350732Y35889910D03*
X71810732Y33349910D03*
X74350732Y33349910D03*
X71810732Y30809910D03*
X74350732Y30809910D03*
%TD*%
D12*
%TO.C,H2*%
X134410732Y85109910D03*
%TD*%
D20*
%TO.C,J2*%
X12745628Y53449010D03*
X10245628Y49749010D03*
D21*
X15545628Y47449010D03*
%TD*%
D12*
%TO.C,H3*%
X4410732Y5109910D03*
%TD*%
D22*
%TO.C,U3*%
X40033426Y37166191D03*
D23*
X40033426Y34626191D03*
X40033426Y32086191D03*
X40033426Y29546191D03*
X47653426Y29546191D03*
X47653426Y32086191D03*
X47653426Y34626191D03*
X47653426Y37166191D03*
%TD*%
D12*
%TO.C,H1*%
X4410732Y85109910D03*
%TD*%
D22*
%TO.C,U1*%
X47690732Y14309910D03*
D23*
X50230732Y14309910D03*
X52770732Y14309910D03*
X55310732Y14309910D03*
X57850732Y14309910D03*
X60390732Y14309910D03*
X62930732Y14309910D03*
X65470732Y14309910D03*
X68010732Y14309910D03*
X70550732Y14309910D03*
X73090732Y14309910D03*
X75630732Y14309910D03*
X78170732Y14309910D03*
X80710732Y14309910D03*
X80710732Y21929910D03*
X78170732Y21929910D03*
X75630732Y21929910D03*
X73090732Y21929910D03*
X70550732Y21929910D03*
X68010732Y21929910D03*
X65470732Y21929910D03*
X62930732Y21929910D03*
X60390732Y21929910D03*
X57850732Y21929910D03*
X55310732Y21929910D03*
X52770732Y21929910D03*
X50230732Y21929910D03*
X47690732Y21929910D03*
%TD*%
D14*
%TO.C,TP1*%
X48950732Y18109910D03*
%TD*%
%TO.C,TP3*%
X54507499Y70693392D03*
%TD*%
%TO.C,TP4*%
X57885331Y70624617D03*
%TD*%
%TO.C,TP6*%
X68910377Y70082663D03*
%TD*%
%TO.C,TP5*%
X61735622Y70830941D03*
%TD*%
D24*
%TO.C,BT1*%
X6857046Y25729926D03*
D15*
X27347046Y25729926D03*
%TD*%
M02*
