%TF.GenerationSoftware,KiCad,Pcbnew,(6.0.5)*%
%TF.CreationDate,2022-07-21T20:49:42-04:00*%
%TF.ProjectId,Kyamaries-HPS-Clock,4b79616d-6172-4696-9573-2d4850532d43,rev?*%
%TF.SameCoordinates,PX4cdb1d4PY8a63396*%
%TF.FileFunction,Soldermask,Bot*%
%TF.FilePolarity,Negative*%
%FSLAX46Y46*%
G04 Gerber Fmt 4.6, Leading zero omitted, Abs format (unit mm)*
G04 Created by KiCad (PCBNEW (6.0.5)) date 2022-07-21 20:49:42*
%MOMM*%
%LPD*%
G01*
G04 APERTURE LIST*
G04 Aperture macros list*
%AMRoundRect*
0 Rectangle with rounded corners*
0 $1 Rounding radius*
0 $2 $3 $4 $5 $6 $7 $8 $9 X,Y pos of 4 corners*
0 Add a 4 corners polygon primitive as box body*
4,1,4,$2,$3,$4,$5,$6,$7,$8,$9,$2,$3,0*
0 Add four circle primitives for the rounded corners*
1,1,$1+$1,$2,$3*
1,1,$1+$1,$4,$5*
1,1,$1+$1,$6,$7*
1,1,$1+$1,$8,$9*
0 Add four rect primitives between the rounded corners*
20,1,$1+$1,$2,$3,$4,$5,0*
20,1,$1+$1,$4,$5,$6,$7,0*
20,1,$1+$1,$6,$7,$8,$9,0*
20,1,$1+$1,$8,$9,$2,$3,0*%
G04 Aperture macros list end*
%ADD10C,3.200000*%
%ADD11C,1.440000*%
%ADD12C,2.000000*%
%ADD13C,3.000000*%
%ADD14R,1.800000X2.600000*%
%ADD15O,1.800000X2.600000*%
%ADD16R,1.700000X1.700000*%
%ADD17O,1.700000X1.700000*%
%ADD18RoundRect,0.500000X1.750000X0.500000X-1.750000X0.500000X-1.750000X-0.500000X1.750000X-0.500000X0*%
%ADD19RoundRect,0.500000X0.500000X-1.500000X0.500000X1.500000X-0.500000X1.500000X-0.500000X-1.500000X0*%
%ADD20R,1.600000X1.600000*%
%ADD21O,1.600000X1.600000*%
%ADD22R,3.000000X3.000000*%
G04 APERTURE END LIST*
D10*
%TO.C,H4*%
X134410732Y5109910D03*
%TD*%
D11*
%TO.C,RV1*%
X21010732Y76529910D03*
X23550732Y79069910D03*
X21010732Y81609910D03*
%TD*%
D12*
%TO.C,TP2*%
X113578740Y83329643D03*
%TD*%
D13*
%TO.C,DS1*%
X34311632Y76529910D03*
X109310212Y45529210D03*
X34311632Y45529210D03*
X109310732Y76529910D03*
D14*
X39810732Y76529910D03*
D15*
X42350732Y76529910D03*
X44890732Y76529910D03*
X47430732Y76529910D03*
X49970732Y76529910D03*
X52510732Y76529910D03*
X55050732Y76529910D03*
X57590732Y76529910D03*
X60130732Y76529910D03*
X62670732Y76529910D03*
X65210732Y76529910D03*
X67750732Y76529910D03*
X70290732Y76529910D03*
X72830732Y76529910D03*
X75370732Y76529910D03*
X77910732Y76529910D03*
%TD*%
D16*
%TO.C,J1*%
X120070732Y11759910D03*
D17*
X120070732Y14299910D03*
X120070732Y16839910D03*
X120070732Y19379910D03*
X120070732Y21919910D03*
X120070732Y24459910D03*
%TD*%
D16*
%TO.C,J3*%
X71810732Y35889910D03*
D17*
X74350732Y35889910D03*
X71810732Y33349910D03*
X74350732Y33349910D03*
X71810732Y30809910D03*
X74350732Y30809910D03*
%TD*%
D10*
%TO.C,H2*%
X134410732Y85109910D03*
%TD*%
D18*
%TO.C,J2*%
X15930732Y47629910D03*
D19*
X21230732Y49929910D03*
X18730732Y53629910D03*
%TD*%
D10*
%TO.C,H3*%
X4410732Y5109910D03*
%TD*%
D20*
%TO.C,U3*%
X40033426Y37166191D03*
D21*
X40033426Y34626191D03*
X40033426Y32086191D03*
X40033426Y29546191D03*
X47653426Y29546191D03*
X47653426Y32086191D03*
X47653426Y34626191D03*
X47653426Y37166191D03*
%TD*%
D10*
%TO.C,H1*%
X4410732Y85109910D03*
%TD*%
D20*
%TO.C,U1*%
X47690732Y14309910D03*
D21*
X50230732Y14309910D03*
X52770732Y14309910D03*
X55310732Y14309910D03*
X57850732Y14309910D03*
X60390732Y14309910D03*
X62930732Y14309910D03*
X65470732Y14309910D03*
X68010732Y14309910D03*
X70550732Y14309910D03*
X73090732Y14309910D03*
X75630732Y14309910D03*
X78170732Y14309910D03*
X80710732Y14309910D03*
X80710732Y21929910D03*
X78170732Y21929910D03*
X75630732Y21929910D03*
X73090732Y21929910D03*
X70550732Y21929910D03*
X68010732Y21929910D03*
X65470732Y21929910D03*
X62930732Y21929910D03*
X60390732Y21929910D03*
X57850732Y21929910D03*
X55310732Y21929910D03*
X52770732Y21929910D03*
X50230732Y21929910D03*
X47690732Y21929910D03*
%TD*%
D12*
%TO.C,TP1*%
X48950732Y18109910D03*
%TD*%
%TO.C,TP3*%
X54507499Y70693392D03*
%TD*%
%TO.C,TP4*%
X57885331Y70624617D03*
%TD*%
%TO.C,TP6*%
X68910377Y70082663D03*
%TD*%
%TO.C,TP5*%
X61735622Y70830941D03*
%TD*%
D22*
%TO.C,BT1*%
X6857046Y25729926D03*
D13*
X27347046Y25729926D03*
%TD*%
M02*
