M48
; DRILL file {KiCad (6.0.5)} date Thu Jul 21 20:49:52 2022
; FORMAT={-:-/ absolute / inch / decimal}
; #@! TF.CreationDate,2022-07-21T20:49:52-04:00
; #@! TF.GenerationSoftware,Kicad,Pcbnew,(6.0.5)
; #@! TF.FileFunction,MixedPlating,1,2
FMAT,2
INCH
; #@! TA.AperFunction,Plated,PTH,ViaDrill
T1C0.0160
; #@! TA.AperFunction,Plated,PTH,ComponentDrill
T2C0.0315
; #@! TA.AperFunction,Plated,PTH,ComponentDrill
T3C0.0394
; #@! TA.AperFunction,Plated,PTH,ComponentDrill
T4C0.0472
; #@! TA.AperFunction,Plated,PTH,ComponentDrill
T5C0.0591
; #@! TA.AperFunction,Plated,PTH,ComponentDrill
T6C0.0984
; #@! TA.AperFunction,NonPlated,NPTH,ComponentDrill
T7C0.1260
%
G90
G05
T1
X0.2272Y2.613
X0.3272Y0.713
X0.4272Y2.813
X0.4272Y2.413
X1.0272Y2.313
X1.1535Y2.5467
X1.2068Y2.9377
X1.2164Y2.8738
X1.3272Y0.913
X1.4602Y0.9591
X1.5419Y2.8738
X1.5627Y3.2392
X1.6272Y2.913
X1.6623Y1.1917
X1.7272Y0.413
X1.7272Y0.213
X1.8272Y3.213
X1.9272Y2.913
X1.9676Y1.4646
X2.0168Y0.4998
X2.0272Y1.013
X2.0477Y1.2772
X2.0978Y0.6539
X2.2216Y0.7073
X2.4617Y0.2415
X2.5072Y0.9338
X2.544Y0.797
X2.6272Y1.413
X2.6735Y0.797
X2.7948Y0.7256
X2.9155Y0.6259
X3.0272Y3.113
X3.0272Y1.013
X3.1193Y1.3658
X3.1344Y1.5466
X3.2272Y0.413
X3.2272Y0.213
X3.3272Y1.313
X3.3592Y0.5623
X3.4272Y0.113
X4.5272Y3.013
X4.5272Y2.213
X4.5272Y1.813
X4.5272Y1.213
X4.5614Y1.4972
X4.5974Y2.0419
X4.6272Y2.813
X4.7772Y0.2859
X4.9272Y1.313
X4.9272Y0.613
X4.9847Y1.5074
X5.0893Y0.3035
X5.1272Y1.513
T2
X0.8272Y3.213
X0.8272Y3.013
X0.9272Y3.113
X1.5761Y1.4632
X1.5761Y1.3632
X1.5761Y1.2632
X1.5761Y1.1632
X1.8761Y1.4632
X1.8761Y1.3632
X1.8761Y1.2632
X1.8761Y1.1632
X1.8776Y0.8634
X1.8776Y0.5634
X1.9776Y0.8634
X1.9776Y0.5634
X2.0776Y0.8634
X2.0776Y0.5634
X2.1776Y0.8634
X2.1776Y0.5634
X2.2776Y0.8634
X2.2776Y0.5634
X2.3776Y0.8634
X2.3776Y0.5634
X2.4776Y0.8634
X2.4776Y0.5634
X2.5776Y0.8634
X2.5776Y0.5634
X2.6776Y0.8634
X2.6776Y0.5634
X2.7776Y0.8634
X2.7776Y0.5634
X2.8776Y0.8634
X2.8776Y0.5634
X2.9776Y0.8634
X2.9776Y0.5634
X3.0776Y0.8634
X3.0776Y0.5634
X3.1776Y0.8634
X3.1776Y0.5634
T3
X1.9272Y0.713
X2.146Y2.7832
X2.279Y2.7805
X2.4305Y2.7886
X2.713Y2.7592
X2.8272Y1.413
X2.8272Y1.313
X2.8272Y1.213
X2.9272Y1.413
X2.9272Y1.313
X2.9272Y1.213
X4.4716Y3.2807
X4.7272Y0.963
X4.7272Y0.863
X4.7272Y0.763
X4.7272Y0.663
X4.7272Y0.563
X4.7272Y0.463
T4
X1.5674Y3.013
X1.6674Y3.013
X1.7674Y3.013
X1.8674Y3.013
X1.9674Y3.013
X2.0674Y3.013
X2.1674Y3.013
X2.2674Y3.013
X2.3674Y3.013
X2.4674Y3.013
X2.5674Y3.013
X2.6674Y3.013
X2.7674Y3.013
X2.8674Y3.013
X2.9674Y3.013
X3.0674Y3.013
T5
X0.27Y1.013
X1.0767Y1.013
T6
X1.3509Y3.013
X1.3509Y1.7925
X4.3036Y1.7925
X4.3036Y3.013
T7
X0.1737Y3.3508
X0.1737Y0.2012
X5.2918Y3.3508
X5.2918Y0.2012
T3
G00X0.6764Y1.8752
M15
G01X0.578Y1.8752
M16
G05
G00X0.7374Y2.072
M15
G01X0.7374Y2.1508
M16
G05
G00X0.8359Y1.9264
M15
G01X0.8359Y2.0051
M16
G05
T0
M30
